#!OML:ASF H:\Punching\Project 1\Capture day 1\Session 1\female.ASF
:FULLY-SPECIFIED
:DEGREES
111
root -0.26202 14.9117 -1.78314 8.8759 0.219198 -0.064248
lowerback 2.95653 -1.23451 -0.437854
upperback -6.12917 -1.70458 -0.148042
thorax -8.0678 -0.817742 0.258493
lowerneck -15.1858 -0.270894 5.10611
upperneck 39.2951 -1.02997 -3.04453
head 16.7013 -0.111754 -2.47055
rclavicle 4.13099e-015 7.15625e-015
rhumerus 32.6139 10.0933 -62.1342
rradius 64.8039
rwrist -1.46898
rhand 33.549 -37.4764
rfingers 7.12502
rthumb 56.8662 -54.1733
lclavicle 4.13099e-015 7.15625e-015
lhumerus 27.5631 -8.73578 56.9023
lradius 79.6434
lwrist -9.02602
lhand 36.7515 27.0346
lfingers 7.12502
lthumb 59.6522 41.1749
rfemur -28.0427 -6.90277 16.9032
rtibia 51.5653
rfoot -28.6577 -8.60111
rtoes -12.6361
lfemur -28.7427 1.42949 -16.7546
ltibia 50.373
lfoot -25.2775 8.24036
ltoes -13.4821
112
root -0.260437 14.9123 -1.78319 8.86831 0.205428 -0.107401
lowerback 2.93958 -1.21393 -0.400665
upperback -6.13325 -1.67412 -0.147122
thorax -8.06345 -0.805063 0.235309
lowerneck -15.1635 -0.21891 5.17619
upperneck 39.4122 -0.982895 -3.01923
head 16.7626 -0.0748342 -2.46704
rclavicle 2.96065e-014 2.5842e-015
rhumerus 32.5712 10.1013 -62.1443
rradius 64.8137
rwrist -1.39715
rhand 33.56 -37.447
rfingers 7.12502
rthumb 56.8759 -54.1359
lclavicle 2.96065e-014 2.5842e-015
lhumerus 27.5681 -8.81111 56.8939
lradius 79.6299
lwrist -9.0624
lhand 36.7476 27.006
lfingers 7.12502
lthumb 59.6488 41.1498
rfemur -28.0247 -6.85323 16.9416
rtibia 51.5357
rfoot -28.6409 -8.61063
rtoes -12.5778
lfemur -28.7324 1.44043 -16.7134
ltibia 50.3679
lfoot -25.2721 8.23611
ltoes -13.429
113
root -0.257551 14.9126 -1.78257 8.83859 0.198497 -0.0820689
lowerback 2.95804 -1.20599 -0.417314
upperback -6.13517 -1.66591 -0.163934
thorax -8.07646 -0.800503 0.226633
lowerneck -15.141 -0.167452 5.21913
upperneck 39.5139 -0.936209 -2.97238
head 16.8162 -0.0395846 -2.44847
rclavicle -4.88886e-015 4.96962e-015
rhumerus 32.5444 10.1333 -62.1566
rradius 64.8081
rwrist -1.31401
rhand 33.6391 -37.3998
rfingers 7.12502
rthumb 56.9455 -54.031
lclavicle -4.88886e-015 4.96962e-015
lhumerus 27.5652 -8.86523 56.9029
lradius 79.6045
lwrist -9.10091
lhand 36.7578 26.9988
lfingers 7.12502
lthumb 59.6576 41.1336
rfemur -27.9785 -6.85238 16.8937
rtibia 51.5091
rfoot -28.6214 -8.61155
rtoes -12.6477
lfemur -28.6846 1.41671 -16.7543
ltibia 50.3578
lfoot -25.2805 8.26433
ltoes -13.4154
114
root -0.255819 14.9134 -1.78248 8.81599 0.198467 -0.120257
lowerback 2.95527 -1.2047 -0.391246
upperback -6.14006 -1.66155 -0.15252
thorax -8.08055 -0.79955 0.223616
lowerneck -15.0807 -0.1074 5.28157
upperneck 39.5927 -0.866721 -2.95854
head 16.8488 0.00269005 -2.44274
rclavicle -2.2531e-014 -9.54166e-015
rhumerus 32.5421 10.2005 -62.1515
rradius 64.7936
rwrist -1.3298
rhand 33.5483 -37.3954
rfingers 7.12502
rthumb 56.8656 -54.0928
lclavicle -2.2531e-014 -9.54166e-015
lhumerus 27.5326 -8.90136 56.8941
lradius 79.611
lwrist -9.12073
lhand 36.833 27.0262
lfingers 7.12502
lthumb 59.7221 41.095
rfemur -27.9313 -6.80465 16.9219
rtibia 51.4752
rfoot -28.6132 -8.61918
rtoes -12.5566
lfemur -28.6557 1.41176 -16.7161
ltibia 50.359
lfoot -25.2965 8.25681
ltoes -13.3767
115
root -0.253339 14.9135 -1.78276 8.79884 0.196783 -0.153247
lowerback 2.95528 -1.18798 -0.34535
upperback -6.12887 -1.63609 -0.157881
thorax -8.06997 -0.790122 0.189655
lowerneck -15.1148 -0.0554195 5.35115
upperneck 39.6856 -0.817431 -2.94586
head 16.9121 0.038273 -2.44426
rclavicle 1.60332e-014 3.97569e-016
rhumerus 32.537 10.2027 -62.1325
rradius 64.7944
rwrist -1.32206
rhand 33.4344 -37.3758
rfingers 7.12502
rthumb 56.7652 -54.1557
lclavicle 1.60332e-014 3.97569e-016
lhumerus 27.5736 -8.95673 56.8751
lradius 79.5976
lwrist -9.10086
lhand 36.8562 27.0592
lfingers 7.12502
lthumb 59.742 41.1075
rfemur -27.8897 -6.79278 16.9462
rtibia 51.4235
rfoot -28.6035 -8.6164
rtoes -12.5098
lfemur -28.6392 1.39587 -16.6904
ltibia 50.3474
lfoot -25.2813 8.30652
ltoes -13.3811
116
root -0.250996 14.9132 -1.7837 8.78783 0.204839 -0.164597
lowerback 2.95756 -1.18087 -0.326287
upperback -6.13093 -1.62571 -0.165112
thorax -8.07434 -0.786434 0.170462
lowerneck -15.105 -0.00879599 5.3915
upperneck 39.7727 -0.775749 -2.90396
head 16.9611 0.070096 -2.42779
rclavicle 1.35671e-014 4.57205e-015
rhumerus 32.5121 10.2299 -62.1138
rradius 64.8019
rwrist -1.32614
rhand 33.3643 -37.3519
rfingers 7.12502
rthumb 56.7035 -54.1822
lclavicle 1.35671e-014 4.57205e-015
lhumerus 27.5941 -9.01482 56.8522
lradius 79.5732
lwrist -9.11017
lhand 36.892 27.0412
lfingers 7.12502
lthumb 59.7727 41.0579
rfemur -27.8683 -6.78479 16.9485
rtibia 51.3979
rfoot -28.5766 -8.64577
rtoes -12.5989
lfemur -28.6323 1.37781 -16.6871
ltibia 50.353
lfoot -25.2813 8.31229
ltoes -13.4444
117
root -0.242764 14.9157 -1.77447 8.60997 0.23111 -0.195688
lowerback 3.08666 -1.10923 -0.19079
upperback -6.03969 -1.52512 -0.243788
thorax -8.05737 -0.748055 0.00379579
lowerneck -15.4215 -0.00286651 5.6331
upperneck 39.9586 -0.832993 -2.9986
head 17.1405 0.0766769 -2.5354
rclavicle 7.41094e-015 -2.98177e-015
rhumerus 32.3785 9.98947 -62.0464
rradius 64.9143
rwrist -1.3218
rhand 33.5966 -37.565
rfingers 7.12502
rthumb 56.9081 -54.2273
lclavicle 7.41094e-015 -2.98177e-015
lhumerus 27.8561 -9.19879 56.8284
lradius 79.5364
lwrist -8.98361
lhand 36.6419 27.3142
lfingers 7.12502
lthumb 59.5581 41.5502
rfemur -27.5897 -6.83217 16.9239
rtibia 51.3494
rfoot -28.6195 -8.61988
rtoes -12.668
lfemur -28.3847 1.26704 -16.6794
ltibia 50.3465
lfoot -25.3554 8.38971
ltoes -13.3532
118
root -0.245784 14.9137 -1.78298 8.75049 0.197049 -0.171908
lowerback 2.95256 -1.16778 -0.313916
upperback -6.11545 -1.60794 -0.177803
thorax -8.0554 -0.778997 0.148137
lowerneck -15.1187 0.105325 5.56181
upperneck 39.8979 -0.646103 -2.93301
head 17.0427 0.149343 -2.45243
rclavicle -1.2424e-017 -5.96354e-015
rhumerus 32.5078 10.2587 -62.1344
rradius 64.8066
rwrist -1.23785
rhand 33.3173 -37.3306
rfingers 7.12502
rthumb 56.6621 -54.1947
lclavicle -1.2424e-017 -5.96354e-015
lhumerus 27.6306 -9.07098 56.8246
lradius 79.5703
lwrist -9.07133
lhand 37.0054 27.1079
lfingers 7.12502
lthumb 59.8699 41.0241
rfemur -27.8002 -6.78222 16.9261
rtibia 51.3525
rfoot -28.5512 -8.63001
rtoes -12.6388
lfemur -28.5889 1.33257 -16.7023
ltibia 50.3684
lfoot -25.3109 8.35805
ltoes -13.3124
119
root -0.244039 14.9133 -1.78388 8.72151 0.192579 -0.20429
lowerback 2.9642 -1.15587 -0.291732
upperback -6.1085 -1.58998 -0.17257
thorax -8.05518 -0.771333 0.139625
lowerneck -15.0918 0.153476 5.61367
upperneck 39.9357 -0.591641 -2.92108
head 17.0609 0.182752 -2.44726
rclavicle 3.63093e-014 6.95746e-015
rhumerus 32.5021 10.2734 -62.1226
rradius 64.8084
rwrist -1.16737
rhand 33.3147 -37.2972
rfingers 7.12502
rthumb 56.6598 -54.1632
lclavicle 3.63093e-014 6.95746e-015
lhumerus 27.6424 -9.10708 56.8287
lradius 79.581
lwrist -9.06344
lhand 37.0893 27.106
lfingers 7.12502
lthumb 59.9417 40.9474
rfemur -27.7662 -6.76115 16.951
rtibia 51.3309
rfoot -28.5482 -8.62896
rtoes -12.66
lfemur -28.5702 1.33702 -16.6744
ltibia 50.3795
lfoot -25.2856 8.38183
ltoes -13.446
120
root -0.241606 14.9139 -1.78381 8.70703 0.1874 -0.243436
lowerback 2.96535 -1.14492 -0.243337
upperback -6.10866 -1.5719 -0.173399
thorax -8.05741 -0.765462 0.109936
lowerneck -15.1046 0.199002 5.68363
upperneck 40.0049 -0.542044 -2.93032
head 17.1063 0.214714 -2.45748
rclavicle -1.67725e-016 -6.16232e-015
rhumerus 32.479 10.2907 -62.1089
rradius 64.8226
rwrist -1.14464
rhand 33.3051 -37.2706
rfingers 7.12502
rthumb 56.6513 -54.1435
lclavicle -1.67725e-016 -6.16232e-015
lhumerus 27.6585 -9.13758 56.8241
lradius 79.5809
lwrist -9.04126
lhand 37.138 27.1318
lfingers 7.12502
lthumb 59.9833 40.9296
rfemur -27.7501 -6.77174 16.9819
rtibia 51.3277
rfoot -28.5438 -8.61787
rtoes -12.7363
lfemur -28.5621 1.34699 -16.6437
ltibia 50.4021
lfoot -25.3007 8.39318
ltoes -13.4681
121
root -0.239515 14.9136 -1.78384 8.68376 0.167163 -0.247938
lowerback 2.96379 -1.13969 -0.255575
upperback -6.08763 -1.56526 -0.168966
thorax -8.03326 -0.761363 0.120458
lowerneck -15.1387 0.25118 5.72585
upperneck 40.0537 -0.479134 -2.92715
head 17.1471 0.249061 -2.45425
rclavicle 6.47293e-015 -9.93923e-016
rhumerus 32.5236 10.3177 -62.0858
rradius 64.8194
rwrist -1.08699
rhand 33.2859 -37.281
rfingers 7.12502
rthumb 56.6344 -54.1675
lclavicle 6.47293e-015 -9.93923e-016
lhumerus 27.6786 -9.12643 56.8077
lradius 79.5922
lwrist -9.01976
lhand 37.1789 27.1459
lfingers 7.12502
lthumb 60.0183 40.9069
rfemur -27.7114 -6.76277 16.9708
rtibia 51.3097
rfoot -28.5614 -8.57554
rtoes -12.6369
lfemur -28.5362 1.35499 -16.6477
ltibia 50.4162
lfoot -25.3141 8.3975
ltoes -13.4268
122
root -0.237162 14.9139 -1.7845 8.66072 0.167146 -0.262882
lowerback 2.97185 -1.13666 -0.235574
upperback -6.07307 -1.5602 -0.176045
thorax -8.02297 -0.760395 0.101333
lowerneck -15.1595 0.301722 5.79207
upperneck 40.1007 -0.425731 -2.92491
head 17.183 0.283034 -2.45719
rclavicle -1.0871e-015 -5.56597e-015
rhumerus 32.5522 10.3361 -62.0769
rradius 64.8215
rwrist -1.03592
rhand 33.2362 -37.2144
rfingers 7.12502
rthumb 56.5905 -54.1365
lclavicle -1.0871e-015 -5.56597e-015
lhumerus 27.6983 -9.13288 56.7917
lradius 79.6179
lwrist -8.99258
lhand 37.1848 27.1889
lfingers 7.12502
lthumb 60.0234 40.9447
rfemur -27.6774 -6.77353 16.9732
rtibia 51.2866
rfoot -28.5462 -8.5572
rtoes -12.6944
lfemur -28.5183 1.35517 -16.6417
ltibia 50.4302
lfoot -25.3067 8.40846
ltoes -13.4897
123
root -0.235867 14.914 -1.78597 8.65403 0.142724 -0.277554
lowerback 2.98545 -1.12722 -0.242092
upperback -6.09123 -1.54769 -0.169317
thorax -8.05026 -0.753484 0.111348
lowerneck -15.1212 0.351002 5.83909
upperneck 40.1504 -0.360425 -2.92933
head 17.2058 0.317984 -2.45686
rclavicle -6.13126e-015 -3.97569e-016
rhumerus 32.5458 10.3763 -62.0747
rradius 64.8342
rwrist -1.01292
rhand 33.2602 -37.2762
rfingers 7.12502
rthumb 56.6117 -54.1811
lclavicle -6.13126e-015 -3.97569e-016
lhumerus 27.671 -9.15628 56.8034
lradius 79.6263
lwrist -8.98251
lhand 37.1748 27.1709
lfingers 7.12502
lthumb 60.0149 40.9356
rfemur -27.6794 -6.76139 16.9828
rtibia 51.2703
rfoot -28.5239 -8.53346
rtoes -12.6877
lfemur -28.5281 1.37643 -16.6322
ltibia 50.4491
lfoot -25.3059 8.41057
ltoes -13.4236
124
root -0.233321 14.9136 -1.78621 8.634 0.134401 -0.302255
lowerback 2.98419 -1.12535 -0.216777
upperback -6.07347 -1.54335 -0.170486
thorax -8.03099 -0.753029 0.0952725
lowerneck -15.1491 0.406703 5.92073
upperneck 40.1843 -0.29231 -2.95698
head 17.2372 0.355768 -2.47318
rclavicle 8.88319e-016 3.57812e-015
rhumerus 32.5677 10.4025 -62.0488
rradius 64.848
rwrist -0.973235
rhand 33.225 -37.1782
rfingers 7.12502
rthumb 56.5807 -54.1083
lclavicle 8.88319e-016 3.57812e-015
lhumerus 27.7145 -9.15511 56.7723
lradius 79.6431
lwrist -8.96154
lhand 37.1882 27.1898
lfingers 7.12502
lthumb 60.0262 40.9425
rfemur -27.6454 -6.77765 16.9966
rtibia 51.2497
rfoot -28.5321 -8.5025
rtoes -12.7482
lfemur -28.5055 1.38355 -16.6125
ltibia 50.4657
lfoot -25.3168 8.41096
ltoes -13.3861
125
root -0.230747 14.9135 -1.78682 8.61965 0.115656 -0.30629
lowerback 2.99198 -1.11254 -0.211295
upperback -6.07381 -1.52612 -0.175573
thorax -8.03624 -0.745045 0.0853399
lowerneck -15.1574 0.458531 5.97857
upperneck 40.2278 -0.228527 -2.96443
head 17.2689 0.391339 -2.47678
rclavicle 1.63811e-014 -1.19271e-015
rhumerus 32.5769 10.4213 -62.0258
rradius 64.858
rwrist -0.912713
rhand 33.1648 -37.1497
rfingers 7.12502
rthumb 56.5275 -54.1226
lclavicle 1.63811e-014 -1.19271e-015
lhumerus 27.7151 -9.17911 56.7717
lradius 79.664
lwrist -8.95751
lhand 37.121 27.1675
lfingers 7.12502
lthumb 59.9688 40.9805
rfemur -27.6264 -6.79362 16.9846
rtibia 51.2345
rfoot -28.5268 -8.46643
rtoes -12.8434
lfemur -28.4985 1.39975 -16.6227
ltibia 50.4859
lfoot -25.323 8.42574
ltoes -13.4445
